HIERARCHY
ROOT Hips
{
  OFFSET 5.84602e-005 68.8428 3.50346
  CHANNELS 6 Xposition Yposition Zposition Zrotation Xrotation Yrotation
  JOINT Spine
  {
    OFFSET 0 8.597 -4.6522
    CHANNELS 3 Zrotation Xrotation Yrotation
    JOINT Spine1
    {
      OFFSET 0 7.8454 0.4098
      CHANNELS 3 Zrotation Xrotation Yrotation
      JOINT Spine2
      {
        OFFSET 0 9.7078 -2.1609
        CHANNELS 3 Zrotation Xrotation Yrotation
        JOINT Neck
        {
          OFFSET 0 21.8761 -0.4549
          CHANNELS 3 Zrotation Xrotation Yrotation
          JOINT Head
          {
            OFFSET 0 12.3537 3.3602
            CHANNELS 3 Zrotation Xrotation Yrotation
            End Site
            {
              OFFSET 0.0001 18.9506 0.5657
            }
          }
        }
        JOINT LeftShoulder
        {
          OFFSET 2.2086 21.1115 7.2329
          CHANNELS 3 Zrotation Xrotation Yrotation
          JOINT LeftArm
          {
            OFFSET 13.1193 3.0282 -4.8998
            CHANNELS 3 Zrotation Xrotation Yrotation
            JOINT LeftForeArm
            {
              OFFSET 27.4081 -0.0973053 -0.2375
              CHANNELS 3 Zrotation Xrotation Yrotation
              JOINT LeftHand
              {
                OFFSET 22.8641 0.0662994 -0.1369
                CHANNELS 3 Zrotation Xrotation Yrotation
                JOINT LeftHandIndex1
                {
                  OFFSET 8.8614 0.775009 2.4612
                  CHANNELS 3 Zrotation Xrotation Yrotation
                  JOINT LeftHandIndex2
                  {
                    OFFSET 3.3146 -0.808304 0.5841
                    CHANNELS 3 Zrotation Xrotation Yrotation
                    JOINT LeftHandIndex3
                    {
                      OFFSET 2.2628 -0.552002 0.3989
                      CHANNELS 3 Zrotation Xrotation Yrotation
                      End Site
                      {
                        OFFSET 1.6102 -0.4807 0.2612
                      }
                    }
                  }
                }
                JOINT LeftHandMiddle1
                {
                  OFFSET 8.9937 0.895004 0.2143
                  CHANNELS 3 Zrotation Xrotation Yrotation
                  JOINT LeftHandMiddle2
                  {
                    OFFSET 4.0984 0.0113983 -0.0242
                    CHANNELS 3 Zrotation Xrotation Yrotation
                    JOINT LeftHandMiddle3
                    {
                      OFFSET 2.2716 0.00689697 -0.0138001
                      CHANNELS 3 Zrotation Xrotation Yrotation
                      End Site
                      {
                        OFFSET 2.0404 -0.1441 0.0027
                      }
                    }
                  }
                }
                JOINT LeftHandRing1
                {
                  OFFSET 8.5234 0.597198 -2.0164
                  CHANNELS 3 Zrotation Xrotation Yrotation
                  JOINT LeftHandRing2
                  {
                    OFFSET 3.7188 -0.188293 -0.2328
                    CHANNELS 3 Zrotation Xrotation Yrotation
                    JOINT LeftHandRing3
                    {
                      OFFSET 2.1191 -0.106598 -0.1332
                      CHANNELS 3 Zrotation Xrotation Yrotation
                      End Site
                      {
                        OFFSET 1.8737 -0.2304 -0.0886
                      }
                    }
                  }
                }
                JOINT LeftHandPinky1
                {
                  OFFSET 7.9094 -0.601089 -3.4825
                  CHANNELS 3 Zrotation Xrotation Yrotation
                  JOINT LeftHandPinky2
                  {
                    OFFSET 2.2874 -0.477005 -0.6314
                    CHANNELS 3 Zrotation Xrotation Yrotation
                    JOINT LeftHandPinky3
                    {
                      OFFSET 1.6774 -0.349396 -0.4633
                      CHANNELS 3 Zrotation Xrotation Yrotation
                      End Site
                      {
                        OFFSET 1.4888 -0.4091 -0.3416
                      }
                    }
                  }
                }
                JOINT LeftHandThumb1
                {
                  OFFSET 1.833 -1.3875 1.3896
                  CHANNELS 3 Zrotation Xrotation Yrotation
                  JOINT LeftHandThumb2
                  {
                    OFFSET 3.4129 -1.121 2.5732
                    CHANNELS 3 Zrotation Xrotation Yrotation
                    JOINT LeftHandThumb3
                    {
                      OFFSET 2.2474 -0.804199 1.6192
                      CHANNELS 3 Zrotation Xrotation Yrotation
                      End Site
                      {
                        OFFSET 1.6527 -0.5689 1.1317
                      }
                    }
                  }
                }
              }
            }
          }
        }
        JOINT RightShoulder
        {
          OFFSET -2.2086 21.1115 7.2329
          CHANNELS 3 Zrotation Xrotation Yrotation
          JOINT RightArm
          {
            OFFSET -13.1216 3.0287 -4.9007
            CHANNELS 3 Zrotation Xrotation Yrotation
            JOINT RightForeArm
            {
              OFFSET -27.4081 -0.0973053 -0.2375
              CHANNELS 3 Zrotation Xrotation Yrotation
              JOINT RightHand
              {
                OFFSET -22.8641 0.0664063 -0.1369
                CHANNELS 3 Zrotation Xrotation Yrotation
                JOINT RightHandIndex1
                {
                  OFFSET -8.8614 0.774994 2.4612
                  CHANNELS 3 Zrotation Xrotation Yrotation
                  JOINT RightHandIndex2
                  {
                    OFFSET -3.3146 -0.808304 0.5841
                    CHANNELS 3 Zrotation Xrotation Yrotation
                    JOINT RightHandIndex3
                    {
                      OFFSET -2.2628 -0.552002 0.3989
                      CHANNELS 3 Zrotation Xrotation Yrotation
                      End Site
                      {
                        OFFSET -1.6102 -0.4807 0.2612
                      }
                    }
                  }
                }
                JOINT RightHandMiddle1
                {
                  OFFSET -8.9937 0.894989 0.2143
                  CHANNELS 3 Zrotation Xrotation Yrotation
                  JOINT RightHandMiddle2
                  {
                    OFFSET -4.0984 0.0113983 -0.0242
                    CHANNELS 3 Zrotation Xrotation Yrotation
                    JOINT RightHandMiddle3
                    {
                      OFFSET -2.2716 0.00691223 -0.0138001
                      CHANNELS 3 Zrotation Xrotation Yrotation
                      End Site
                      {
                        OFFSET -2.0404 -0.1441 0.0027
                      }
                    }
                  }
                }
                JOINT RightHandRing1
                {
                  OFFSET -8.5234 0.597198 -2.0164
                  CHANNELS 3 Zrotation Xrotation Yrotation
                  JOINT RightHandRing2
                  {
                    OFFSET -3.7188 -0.188309 -0.2328
                    CHANNELS 3 Zrotation Xrotation Yrotation
                    JOINT RightHandRing3
                    {
                      OFFSET -2.1191 -0.106598 -0.1332
                      CHANNELS 3 Zrotation Xrotation Yrotation
                      End Site
                      {
                        OFFSET -1.8737 -0.2304 -0.0886
                      }
                    }
                  }
                }
                JOINT RightHandPinky1
                {
                  OFFSET -7.9094 -0.601105 -3.4825
                  CHANNELS 3 Zrotation Xrotation Yrotation
                  JOINT RightHandPinky2
                  {
                    OFFSET -2.2874 -0.477005 -0.6314
                    CHANNELS 3 Zrotation Xrotation Yrotation
                    JOINT RightHandPinky3
                    {
                      OFFSET -1.6774 -0.349396 -0.4633
                      CHANNELS 3 Zrotation Xrotation Yrotation
                      End Site
                      {
                        OFFSET -1.4888 -0.4091 -0.3416
                      }
                    }
                  }
                }
                JOINT RightHandThumb1
                {
                  OFFSET -1.833 -1.38751 1.3896
                  CHANNELS 3 Zrotation Xrotation Yrotation
                  JOINT RightHandThumb2
                  {
                    OFFSET -3.41299 -1.12099 2.5732
                    CHANNELS 3 Zrotation Xrotation Yrotation
                    JOINT RightHandThumb3
                    {
                      OFFSET -2.24741 -0.804108 1.6192
                      CHANNELS 3 Zrotation Xrotation Yrotation
                      End Site
                      {
                        OFFSET -1.6527 -0.5689 1.1317
                      }
                    }
                  }
                }
              }
            }
          }
        }
      }
    }
  }
  JOINT RightUpLeg
  {
    OFFSET -9.1966 3.8861 -0.7581
    CHANNELS 3 Zrotation Xrotation Yrotation
    JOINT RightLeg
    {
      OFFSET -0.7359 -41.0265 0
      CHANNELS 3 Zrotation Xrotation Yrotation
      JOINT RightFoot
      {
        OFFSET 0 -40.2855 0
        CHANNELS 3 Zrotation Xrotation Yrotation
        JOINT RightToeBase
        {
          OFFSET 0 -5.6122 11.7359
          CHANNELS 3 Zrotation Xrotation Yrotation
          End Site
          {
            OFFSET 0 0 7.8731
          }
        }
      }
    }
  }
  JOINT LeftUpLeg
  {
    OFFSET 9.1965 3.8864 -0.7581
    CHANNELS 3 Zrotation Xrotation Yrotation
    JOINT LeftLeg
    {
      OFFSET 0.7359 -41.0268 0
      CHANNELS 3 Zrotation Xrotation Yrotation
      JOINT LeftFoot
      {
        OFFSET 0 -40.2855 0
        CHANNELS 3 Zrotation Xrotation Yrotation
        JOINT LeftToeBase
        {
          OFFSET 0 -5.6122 11.7359
          CHANNELS 3 Zrotation Xrotation Yrotation
          End Site
          {
            OFFSET 0 0 7.8731
          }
        }
      }
    }
  }
}
MOTION
Frames:	5
Frame Time:	0.0333333
5.84602e-005 68.8428 3.50346 0 0 -0 0 0 -0 0 0 -0 0 0 -0 0 0 -0 0 0 -0 0 0 -0 0 0 -0 0 0 -0 0 0 -0 0 0 -0 0 0 -0 0 0 -0 0 0 -0 -0.0146107 -8.87603e-005 -2.63497e-007 2.99804e-018 -2.42657e-020 -1.42182e-022 0 0 -0 -0.0187562 -0.001176 5.858e-005 5.06224e-018 3.88251e-019 1.21329e-020 0 0 -0 -0.012269 -0.00324817 0.000675346 -1.74678e-018 3.88251e-019 -0 0 0 -0 0 0 -0 0 0 -0 0 0 -0 0 0 -0 0 0 -0 0 0 -0 0 0 -0 0 0 -0 0 0 -0 0 0 -0 0.0149955 -9.10982e-005 2.64101e-007 -9.69331e-018 1.21329e-020 -4.7394e-023 0 0 -0 0.0189956 -0.00119102 -5.96516e-005 -5.41541e-019 0 2.42657e-020 0 0 -0 0.0122698 -0.00324857 -0.000673756 -2.00796e-019 0 -1.94126e-019 0 0 -0 0 0 -0 0 0 -0 3.39842 1.33031 -0.0637918 -5.65207e-008 0.834868 -0.000436188 -3.39935 -2.16518 -0.0642563 -8.89002e-024 -1.18485e-023 -1.48106e-024 -3.39844 1.35642 0.0640283 -3.18788e-007 0.782166 -0.000588827 3.39931 -2.13858 0.0634662 1.1399e-023 0 -0 
19.868 1.23138 6.29806 -90.4091 -89.739 89.3299 -2.97846e-007 -1.09877e-009 -1.84661e-007 3.91044e-008 6.25393e-012 -3.63588e-008 -7.14558e-009 5.33886e-011 3.05866e-008 1.9987 -0.0821152 0.00286617 19.9982 -2.01151e-005 4.59468e-006 -25.6604 -4.44001 8.96901 -44.17 -26.1978 -31.5526 -1.78631e-006 -7.164e-006 -118.002 -10.0022 2.87191e-007 3.48601e-006 -3.67417e-006 -2.68739e-007 1.56074e-006 7.82108e-007 -3.6591e-006 9.45144e-006 -3.67417e-006 -2.68738e-007 1.56074e-006 -3.67417e-006 -2.68739e-007 1.56074e-006 -0.0146042 -9.36968e-005 4.61005e-006 -2.54917e-006 1.85428e-007 1.99116e-006 -3.67417e-006 -2.68739e-007 1.56074e-006 -0.0187706 -0.0011798 6.47328e-005 -2.54953e-006 1.85259e-007 1.99119e-006 -3.67417e-006 -2.68739e-007 1.56074e-006 -0.012242 -0.0032504 0.000678313 -3.67397e-006 -2.68841e-007 1.56081e-006 -3.67417e-006 -2.68739e-007 1.56074e-006 7.82108e-007 -3.6591e-006 9.45144e-006 -3.67417e-006 -2.68738e-007 1.56074e-006 -2.80336e-008 -0.0821822 -1.89423e-008 74.4862 -30.6025 70.0327 3.48432e-014 1.67157e-014 120.994 0.998436 1.17115e-006 -1.04665e-006 -4.77083e-015 7.95139e-016 3.18055e-015 1.32417e-031 2.38542e-015 -3.18055e-015 1.59028e-015 -1.59028e-015 -3.18055e-015 -4.77083e-015 7.95139e-016 3.18055e-015 0.0150373 -9.02836e-005 -4.70149e-007 -3.18055e-015 3.18055e-015 3.18055e-015 -4.77083e-015 7.95139e-016 3.18055e-015 0.0190592 -0.0011962 -5.93196e-005 1.59028e-015 -9.54166e-015 -0 -4.77083e-015 7.95139e-016 3.18055e-015 0.0123196 -0.00325729 -0.000683701 1.32417e-030 -1.19271e-014 6.36111e-015 -4.77083e-015 7.95139e-016 3.18055e-015 1.32417e-031 2.38542e-015 -3.18055e-015 1.59028e-015 -1.59028e-015 -3.18055e-015 -24.3715 -32.6851 -15.7694 0.0727025 52.2987 -1.82804 -3.54524 32.8023 -0.13654 -1.64079e-006 2.95261e-006 -1.63293e-006 23.474 -29.2634 13.3089 -0.154823 48.0395 2.35187 4.45022 57.2085 -0.93647 0 0 -9.54166e-015 
19.868 1.23138 6.29806 -90.4091 -89.739 89.3299 -2.97846e-007 -1.09877e-009 -1.84661e-007 3.91044e-008 6.25393e-012 -3.63588e-008 -7.14558e-009 5.33886e-011 3.05866e-008 1.9987 -0.0821152 0.00286617 19.1806 -6.26528e-007 2.28771e-007 -25.6604 -4.44001 8.96901 -43.9236 -26.4648 -31.7558 3.80014e-015 1.52405e-014 -118.002 -10.0022 6.31104e-006 3.4093e-006 6.31538e-007 1.05149e-006 8.32801e-007 6.36111e-015 3.18055e-015 -6.36111e-015 4.86585e-007 -5.54602e-007 -4.23906e-007 6.31538e-007 1.05149e-006 8.32801e-007 -0.0146046 -8.55018e-005 2.51246e-006 4.86594e-007 -5.54548e-007 -4.23977e-007 6.31538e-007 1.05149e-006 8.32801e-007 -0.018736 -0.0011718 5.79582e-005 4.86592e-007 -5.54532e-007 -4.24002e-007 6.31538e-007 1.05149e-006 8.32801e-007 -0.0123091 -0.00325787 0.000674461 4.86577e-007 -5.54557e-007 -4.2398e-007 6.31538e-007 1.05149e-006 8.32801e-007 6.36111e-015 3.18055e-015 -6.36111e-015 4.86585e-007 -5.54602e-007 -4.23906e-007 -2.80336e-008 -0.0821822 -1.89423e-008 74.1061 -30.3724 69.1356 -1.74374e-005 7.85743e-006 120.994 0.998438 -4.9449e-006 1.21605e-006 -4.77083e-015 -2.38542e-015 -3.18055e-015 -4.77083e-015 -1.03368e-014 -3.18055e-015 3.18055e-015 -9.54166e-015 -3.18055e-015 -4.77083e-015 -2.38542e-015 -3.18055e-015 0.0149966 -8.98585e-005 -1.59223e-006 1.25819e-006 -6.7091e-007 1.76254e-006 -4.77083e-015 -2.38542e-015 -3.18055e-015 0.01899 -0.00119291 -5.7178e-005 3.18055e-015 -4.77083e-015 3.18055e-015 -4.77083e-015 -2.38542e-015 -3.18055e-015 0.0121793 -0.00322218 -0.000672685 -1.59028e-015 4.77083e-015 -6.36111e-015 -4.77083e-015 -2.38542e-015 -3.18055e-015 -4.77083e-015 -1.03368e-014 -3.18055e-015 3.18055e-015 -9.54166e-015 -3.18055e-015 -24.3715 -32.6851 -15.7694 0.0727025 52.2987 -1.82804 -3.54524 32.8023 -0.13654 -1.64079e-006 2.95261e-006 -1.63293e-006 23.474 -29.2634 13.3089 -0.154823 48.0395 2.35187 4.45022 57.2085 -0.93647 0 0 -9.54166e-015 
19.868 1.23138 6.29806 -90.4091 -89.739 89.3299 -2.97846e-007 -1.09877e-009 -1.84661e-007 3.91044e-008 6.25393e-012 -3.63588e-008 -7.14558e-009 5.33886e-011 3.05866e-008 1.9987 -0.0821152 0.00286617 18.3611 -1.06306e-005 1.0176e-006 -25.6604 -4.44001 8.96901 -43.6776 -26.7327 -31.9583 -1.70451e-005 -7.164e-006 -118.002 -10.0022 -3.89066e-007 -2.92544e-006 -3.18055e-015 1.59028e-015 -6.36111e-015 6.36111e-015 1.59028e-015 -0 4.89265e-007 -5.53575e-007 -4.22359e-007 -3.18055e-015 1.59028e-015 -6.36111e-015 -0.0146171 -8.87962e-005 -3.0194e-006 4.89273e-007 -5.53521e-007 -4.2243e-007 -3.18055e-015 1.59028e-015 -6.36111e-015 -0.0187258 -0.00117464 5.88834e-005 4.89271e-007 -5.53505e-007 -4.22454e-007 -3.18055e-015 1.59028e-015 -6.36111e-015 -0.01223 -0.00323134 0.000664269 4.89257e-007 -5.53531e-007 -4.22432e-007 -3.18055e-015 1.59028e-015 -6.36111e-015 6.36111e-015 1.59028e-015 -0 4.89265e-007 -5.53575e-007 -4.22359e-007 -2.80336e-008 -0.0821822 -1.89423e-008 73.7305 -30.1368 68.2409 -2.1786e-006 7.85743e-006 120.994 0.998424 2.05363e-006 1.16301e-006 -1.59028e-015 -8.74653e-015 -3.18055e-015 1.59028e-015 -3.18055e-015 -0 4.77083e-015 3.18055e-015 -6.36111e-015 -1.59028e-015 -8.74653e-015 -3.18055e-015 0.0149712 -9.33862e-005 -1.04581e-006 -1.59028e-015 -1.43125e-014 -3.18055e-015 -1.59028e-015 -8.74653e-015 -3.18055e-015 0.0189661 -0.00119035 -6.1503e-005 -4.77083e-015 -3.97569e-015 -3.18055e-015 -1.59028e-015 -8.74653e-015 -3.18055e-015 0.0122861 -0.00325463 -0.000676884 4.77083e-015 0 -3.18055e-015 -1.59028e-015 -8.74653e-015 -3.18055e-015 1.59028e-015 -3.18055e-015 -0 4.77083e-015 3.18055e-015 -6.36111e-015 -24.3715 -32.6851 -15.7694 0.072705 52.2986 -1.82803 -3.54525 32.8023 -0.136533 9.62772e-007 1.87479e-007 1.42748e-006 23.474 -29.2635 13.3089 -0.154826 48.0395 2.35187 4.45023 57.2085 -0.936468 4.67135e-007 -2.68773e-007 3.30708e-006 
19.868 1.23138 6.29806 -90.4125 -89.739 89.3266 -4.56134e-007 -8.74511e-010 7.21004e-008 -3.92294e-008 -9.27287e-011 -1.49862e-009 2.34263e-008 2.07577e-011 -1.43052e-008 1.9987 -0.0816998 0.00286293 17.5397 -3.08689e-006 -2.51916e-006 -25.6604 -4.44 8.96901 -43.432 -27.0016 -32.1601 1.16862e-005 -1.4328e-005 -118.002 -10.0022 1.73761e-005 -1.6129e-005 -6.36111e-015 1.59028e-015 -3.18055e-015 3.18055e-015 -1.59028e-015 -0 -4.91938e-007 5.52538e-007 4.20804e-007 -6.36111e-015 1.59028e-015 -3.18055e-015 -0.014582 -8.12888e-005 -1.10116e-005 -4.91947e-007 5.52484e-007 4.20875e-007 -6.36111e-015 1.59028e-015 -3.18055e-015 -0.0187451 -0.00117729 5.12666e-005 -4.91945e-007 5.52469e-007 4.209e-007 -6.36111e-015 1.59028e-015 -3.18055e-015 -0.0123081 -0.00325342 0.000677317 -4.9193e-007 5.52494e-007 4.20878e-007 -6.36111e-015 1.59028e-015 -3.18055e-015 3.18055e-015 -1.59028e-015 -0 -4.91938e-007 5.52538e-007 4.20804e-007 4.31258e-008 -0.0821725 -1.69505e-008 73.3596 -29.8958 67.3489 -1.30802e-005 -7.85743e-006 120.994 0.998432 4.7057e-006 1.72345e-005 -4.77083e-015 -1.03368e-014 -0 2.85603e-007 -1.40703e-006 -3.59755e-006 3.18055e-015 3.18055e-015 -0 -4.77083e-015 -1.03368e-014 -0 0.0149673 -9.55665e-005 -3.67236e-006 -1.59028e-015 4.77083e-015 -3.18055e-015 -4.77083e-015 -1.03368e-014 -0 0.0189745 -0.00119284 -5.88844e-005 5.29669e-031 4.77083e-015 -6.36111e-015 -4.77083e-015 -1.03368e-014 -0 0.0122183 -0.00322932 -0.000680704 -3.18055e-015 1.90833e-014 -0 -4.77083e-015 -1.03368e-014 -0 2.85603e-007 -1.40703e-006 -3.59755e-006 3.18055e-015 3.18055e-015 -0 -24.3715 -32.6851 -15.7694 0.0727133 52.2986 -1.82803 -3.54524 32.8023 -0.13654 1.07753e-007 -3.24282e-006 -1.36459e-006 23.474 -29.2635 13.3089 -0.154818 48.0395 2.35186 4.45021 57.2085 -0.936455 3.40353e-006 1.12789e-006 -1.98629e-006 
